<svg width="49" height="50" viewBox="0 0 49 50" fill="none" xmlns="http://www.w3.org/2000/svg">
<path fill-rule="evenodd" clip-rule="evenodd" d="M41.6603 25L41.7585 24.8607L41.8554 24.7208L42.0447 24.4354L42.1363 24.2904L42.2266 24.1443L42.4018 23.8479L42.4868 23.6974L42.5695 23.5454L42.73 23.2377L43.0279 22.6081L43.0973 22.4471L43.1647 22.2864L43.294 21.9598L43.3555 21.7944L43.4145 21.629L43.5277 21.2944L43.5801 21.126L43.6312 20.956L43.7272 20.6147L43.7717 20.4424L43.8139 20.2695L43.8915 19.9215L43.9269 19.7463L43.9609 19.5704L43.992 19.3945L44.0207 19.2178L44.0474 19.0403L44.0718 18.8621L44.0932 18.6833L44.1133 18.5043L44.1309 18.3255L44.1456 18.1458L44.1583 17.9654L44.1687 17.7849L44.1767 17.6046L44.1827 17.4235L44.1863 17.2422L44.1871 17.0611L44.1856 16.8792L44.182 16.6979L44.1761 16.516L44.168 16.3342L44.1568 16.1523L44.1443 15.9704L44.1288 15.7884L44.1102 15.6073L44.0902 15.4254L44.0673 15.2441L44.0429 15.063L44.0156 14.8819L43.9853 14.7008L43.9535 14.5203L43.8826 14.1602L43.8396 13.9664L43.7946 13.7717L43.6956 13.3854L43.6422 13.193L43.5852 13.0013L43.4649 12.6204L43.4005 12.4318L43.3332 12.243L43.1912 11.8687L42.875 11.1315L42.789 10.9502L42.7012 10.7699L42.5171 10.4128L42.4209 10.2361L42.3227 10.061L42.1185 9.71431L42.0129 9.54356L41.905 9.37376L41.6817 9.03916L41.207 8.3893L41.0821 8.23139L40.9557 8.07482L40.6955 7.76724L40.1506 7.17506L40.0086 7.0321L39.8652 6.89067L39.5724 6.61432L38.9641 6.08807L38.8072 5.96236L38.6484 5.83875L38.3267 5.59786L38.1634 5.48096L37.9985 5.36655L37.6635 5.14482L37.4936 5.03711L37.3229 4.93229L36.9762 4.7301L36.2672 4.3566L36.0986 4.27496L35.9292 4.19638L35.5878 4.04518L35.4155 3.97255L35.2424 3.90298L34.8943 3.77037L34.7183 3.70827L34.5423 3.64772L34.1874 3.53388L34.0093 3.4808L33.8305 3.43059L33.4711 3.3363L33.2907 3.2928L33.1096 3.25159L32.9285 3.21346L32.7466 3.17762L32.564 3.14389L32.3813 3.11246L32.1987 3.08391L32.0155 3.05784L31.8321 3.03389L31.6487 3.01281L31.4653 2.99422L31.2814 2.97774L31.0972 2.96413L30.9131 2.95225L30.7291 2.94401L30.5457 2.9373L30.3616 2.93347L30.1776 2.93194L29.9942 2.93347L29.8101 2.93653L29.6269 2.94248L29.4442 2.95148L29.2608 2.96202L29.0782 2.97544L28.8963 2.99115L28.7144 3.00993L28.5326 3.03006L28.3515 3.05324L28.1711 3.07873L27.9907 3.1071L27.6323 3.17015L27.454 3.20522L27.2759 3.24259L26.9225 3.32423L26.7465 3.36926L26.5713 3.41564L26.2238 3.51663L26.0516 3.56991L25.8801 3.62587L25.5393 3.74507L24.871 4.00858L24.7097 4.07891L24.5491 4.15077L24.2322 4.30121L24.0755 4.37902L23.9201 4.45912L23.6126 4.62528L23.4604 4.71075L23.3104 4.7991L23.013 4.9802L22.4356 5.36425L22.2952 5.46447L22.1555 5.56624L21.882 5.77589L21.3527 6.21379L21.2247 6.32686L21.0983 6.44223L20.85 6.67641L20.3746 7.16165L20.2599 7.2866L20.1477 7.41232L19.9274 7.66835L19.5097 8.19383L19.4105 8.32798L19.3123 8.46347L19.1223 8.73656L18.7659 9.29442L18.6817 9.43662L18.5995 9.57882L18.4405 9.86552L18.3645 10.01L18.2905 10.1553L18.1478 10.4471L18.0791 10.5939L18.0132 10.7413L17.886 11.037L17.6568 11.6338L17.6001 11.7961L17.5461 11.9594L17.4439 12.2858L17.3966 12.449L17.3516 12.6121L17.2688 12.9385L17.2304 13.1018L17.1941 13.2648L17.1608 13.4281L17.129 13.5906L17.0995 13.753L17.0722 13.9155L17.0478 14.0772L17.0249 14.2388L17.0041 14.3997L16.985 14.56L16.9687 14.7202L16.9539 14.8788L16.9412 15.0375L16.931 15.1956L16.9221 15.3528L16.9155 15.5092L16.9102 15.665L16.9074 15.819L16.9059 15.9733V16.1261L16.9079 16.2773L16.9117 16.4277L16.9168 16.5776L16.9235 16.7257L16.9316 16.8731L16.9412 17.0183L16.9524 17.1628L16.9649 17.3058L16.9789 17.448L16.9939 17.5881L17.0262 17.8642L17.0448 17.9997L17.0633 18.1339L17.104 18.3966L17.1254 18.526L17.1468 18.6526L17.1918 18.9012L17.2149 19.0231L17.2378 19.1429L17.2844 19.3757L17.376 19.8174L17.3981 19.923L17.4197 20.0256L17.4596 20.2254L17.4787 20.3213L17.4958 20.4156L17.5276 20.5974L17.5408 20.6791L17.552 20.7592L17.5622 20.837L17.5703 20.9134L17.5779 20.9874L17.583 21.0593L17.5859 21.1296L17.5881 21.1986L17.5874 21.2651L17.5853 21.3303L17.58 21.3939L17.5734 21.4554L17.5645 21.5152L17.5535 21.5736L17.5393 21.6306L17.523 21.6859L17.5047 21.7398L17.4833 21.7929L17.4596 21.8439L17.4329 21.8941L17.4042 21.9427L17.3724 21.9907L17.3376 22.037L17.3006 22.0826L17.2615 22.1275L17.2185 22.1718L17.1735 22.2151L17.1261 22.2578L17.075 22.2998L17.0226 22.3417L16.9087 22.424L16.8481 22.4652L16.7845 22.5056L16.6507 22.5865L16.3557 22.7511L15.669 23.1045L15.5757 23.1524L15.4804 23.2011L15.286 23.3013L14.8823 23.5169L14.0306 24.0117L13.9124 24.0866L13.7941 24.1631L13.5554 24.321L13.0749 24.6616L12.9551 24.7514L12.8353 24.8434L12.5957 25.0339L12.1218 25.4379L12.005 25.5445L11.8882 25.652L11.6575 25.875L11.206 26.3444L11.0958 26.4664L10.9862 26.5908L10.7712 26.8453L10.3556 27.3775L10.2559 27.5153L10.1569 27.6552L9.96385 27.9398L9.86998 28.0841L9.77762 28.2309L9.59782 28.5296L9.51077 28.6816L9.4256 28.8349L9.26076 29.1463L8.95397 29.7887L8.88224 29.9526L8.81278 30.1182L8.68049 30.4535L8.6169 30.6233L8.55634 30.7941L8.44164 31.1392L8.38771 31.3136L8.33585 31.4895L8.28645 31.6662L8.23989 31.8437L8.19542 32.0225L8.1534 32.2023L8.07638 32.5645L8.0425 32.7442L8.0107 32.9238L7.98175 33.1043L7.95449 33.2862L7.93008 33.4681L7.90869 33.6507L7.88939 33.8341L7.87235 34.0175L7.85835 34.2024L7.84662 34.3874L7.83696 34.5723L7.83034 34.758L7.82655 34.9443L7.82504 35.1307L7.8258 35.318L7.82958 35.5042L7.83621 35.6915L7.8451 35.8793L7.85608 36.0665L7.87027 36.2543L7.88712 36.4416L7.90642 36.6294L7.92856 36.8166L7.95298 37.0044L7.98042 37.1916L8.00995 37.3787L8.0425 37.5659L8.07789 37.7524L8.11555 37.9387L8.15624 38.1251L8.245 38.4965L8.29383 38.6805L8.34399 38.8654L8.45414 39.2322L8.51337 39.4149L8.57469 39.5969L8.7049 39.9591L8.77436 40.1389L8.84609 40.3177L8.99693 40.6726L9.32946 41.3717L9.41898 41.544L9.51077 41.7146L9.70135 42.053L9.80052 42.2207L9.90177 42.3861L10.1117 42.7147L10.2205 42.8765L10.3312 43.0367L10.5596 43.3533L11.0439 43.9679L11.1622 44.1072L11.282 44.245L11.5267 44.5167L12.0383 45.0407L12.1704 45.1672L12.3042 45.2921L12.5773 45.537L13.1428 46.0056L13.2878 46.1187L13.4341 46.2294L13.732 46.445L13.8828 46.5499L14.0352 46.6524L14.3442 46.8523L14.5009 46.9496L14.6584 47.0439L14.9777 47.2281L15.6299 47.5694L15.7955 47.6495L15.9624 47.7273L16.2997 47.8764L16.4689 47.9475L16.6403 48.0171L16.9842 48.1482L17.1579 48.2102L17.3317 48.2702L17.6828 48.3831L17.8588 48.4364L18.0361 48.4864L18.3925 48.5809L18.5715 48.625L18.7511 48.6662L18.9307 48.7051L19.1111 48.7411L19.2922 48.7754L19.4733 48.8068L19.6552 48.8361L19.8371 48.863L20.0197 48.8877L20.2024 48.9101L20.3856 48.9297L20.5682 48.9469L20.7516 48.9619L20.9357 48.9737L21.1189 48.9843L21.3023 48.9918L21.502 48.9969L21.7009 49L21.9004 48.9992L22.0993 48.9964L22.299 48.9902L22.4979 48.982L22.6958 48.9701L22.8947 48.9559L23.0929 48.9379L23.2903 48.9184L23.4877 48.8952L23.6851 48.8691L23.8817 48.8406L24.0776 48.8091L24.2733 48.7754L24.4679 48.738L24.6624 48.6984L24.8562 48.6556L25.2414 48.5629L25.4327 48.5119L25.6235 48.4588L26.002 48.3434L26.1897 48.2821L26.3769 48.2177L26.7481 48.0815L27.4754 47.7783L27.6544 47.6959L27.8325 47.6114L28.1838 47.4339L28.3568 47.3419L28.529 47.2476L28.8691 47.0514L29.0368 46.9496L29.2024 46.8456L29.53 46.6307L30.1636 46.1748L30.3173 46.055L30.4696 45.9337L30.769 45.6844L31.3427 45.1628L31.4816 45.0273L31.6177 44.8903L31.8845 44.611L32.3925 44.0307L32.5057 43.8924L32.6171 43.7515L32.8338 43.4671L33.2442 42.8824L33.3411 42.7335L33.4363 42.5831L33.6204 42.2799L33.9628 41.6615L34.0434 41.5043L34.1218 41.3464L34.2711 41.0281L34.3428 40.8681L34.4123 40.7079L34.5438 40.3836L34.6066 40.2213L34.6672 40.058L34.7811 39.7294L34.8351 39.5647L34.8869 39.3992L34.9829 39.0676L35.0274 38.9015L35.0701 38.7345L35.1108 38.5676L35.1485 38.4007L35.1841 38.2336L35.2181 38.0659L35.2787 37.7307L35.3052 37.563L35.3296 37.3952L35.3525 37.2275L35.3726 37.0598L35.3911 36.8921L35.4066 36.7252L35.4206 36.5575L35.4316 36.3906L35.4413 36.2237L35.4486 36.0575L35.4532 35.8914L35.456 35.7252L35.4575 35.5596L35.456 35.395L35.4524 35.2304L35.4471 35.0656L35.4397 34.9025L35.4303 34.7392L35.4184 34.5767L35.4051 34.4144L35.3896 34.2534L35.3718 34.0924L35.3525 33.933L35.3311 33.7735L35.3082 33.6177L35.2838 33.4636L35.2573 33.3101L35.2291 33.1566L35.1988 33.0047L35.167 32.8535L35.0991 32.5541L35.0627 32.4058L35.0243 32.2584L34.9429 31.9664L34.7633 31.3968L34.7145 31.2567L34.6651 31.1183L34.5608 30.8451L34.3398 30.3134L34.2813 30.1841L34.2222 30.0561L34.1009 29.8044L33.8481 29.3171L33.7832 29.1996L33.7173 29.0827L33.585 28.8545L33.3144 28.4158L32.768 27.6148L32.7008 27.5212L32.6342 27.4298L32.5019 27.2518L32.246 26.9133L31.7884 26.3055L31.7337 26.23L31.6813 26.155L31.5823 26.0105L31.5371 25.9402L31.4935 25.8706L31.4152 25.7359L31.3796 25.6692L31.3478 25.6041L31.3183 25.5397L31.2916 25.476L31.2679 25.4132L31.2481 25.3511L31.231 25.2896L31.217 25.2282L31.2066 25.1669L31.1985 25.1062L31.1949 25.0456L31.1941 24.9851L31.1964 24.9251L31.2023 24.8645L31.2111 24.803L31.2229 24.7424L31.2384 24.6803L31.2577 24.6188L31.2791 24.556L31.3043 24.4931L31.3315 24.4287L31.3626 24.3643L31.433 24.2319L31.4721 24.1644L31.5142 24.0956L31.6052 23.955L31.8151 23.657L32.3208 22.9878L32.3902 22.8964L32.4604 22.8028L32.6031 22.6112L32.8959 22.2063L33.4881 21.3055L33.5561 21.1932L33.6234 21.0788L33.7572 20.846L34.0175 20.3617L34.0803 20.2366L34.1424 20.1101L34.2637 19.8525L34.4942 19.3219L34.5489 19.1856L34.6023 19.0486L34.705 18.7701L34.7544 18.6287L34.8025 18.4863L34.8943 18.1983L34.9378 18.0522L34.98 17.9047L35.0591 17.6076L35.0961 17.4578L35.1316 17.3066L35.1973 17.0011L35.2276 16.8478L35.2565 16.6927L35.283 16.5371L35.3082 16.3806L35.3311 16.2234L35.3525 16.0655L35.3718 15.9068L35.3896 15.7472L35.4044 15.5872L35.4184 15.4262L35.4295 15.2652L35.4392 15.1035L35.4466 14.9409L35.4524 14.7779L35.456 14.6146L35.4575 14.4507L35.4568 14.2859L35.4539 14.1221L35.4486 13.9567L35.442 13.7911L35.4331 13.6257L35.4221 13.4603L35.4087 13.2942L35.3932 13.128L35.3756 12.9617L35.3555 12.7955L35.3334 12.6294L35.3097 12.4624L35.283 12.2963L35.2543 12.1299L35.1907 11.7976L35.153 11.6173L35.1116 11.4375L35.0228 11.079L34.974 10.9002L34.9231 10.7212L34.8129 10.3655L34.7537 10.1882L34.6924 10.0123L34.5616 9.66046L34.2688 8.96653L34.1897 8.79501L34.1076 8.62502L33.9361 8.28677L33.8466 8.11909L33.7542 7.95294L33.5627 7.62274L33.4637 7.46023L33.3617 7.29791L33.151 6.97825L32.7008 6.35541L32.5825 6.20344L32.462 6.053L32.2136 5.75654L31.6909 5.18449L31.5548 5.04535L31.4174 4.9091L31.1349 4.64099L30.5465 4.12835L30.3941 4.00474L30.2404 3.8842L29.9276 3.64848L29.7688 3.53388L29.6076 3.42158L29.2807 3.20368L29.1145 3.09828L28.9467 2.99499L28.6073 2.79568L27.9093 2.42677L27.7348 2.3413L27.559 2.25985L27.2042 2.10251L27.0246 2.02777L26.844 1.95514L26.4797 1.81812L26.2955 1.75373L26.1106 1.69163L25.7389 1.57473L25.551 1.52011L25.3632 1.46856L24.984 1.37351L24.7938 1.32924L24.6024 1.28804L24.4103 1.2499L24.2179 1.21464L24.0252 1.18187L23.8321 1.15101L23.6378 1.12342L23.4434 1.0987L23.2489 1.07704L23.0537 1.05749L22.8586 1.04101L22.6627 1.0276L22.4668 1.01629L22.2708 1.00824L22.0741 1.00211L21.8782 1H21.6816L21.485 1.00287L21.2883 1.00824L21.0924 1.01629L20.8958 1.0276L20.6999 1.04178L20.5038 1.05826L20.308 1.07781L20.1128 1.10023L19.9177 1.12495L19.7226 1.15255L19.528 1.18321L19.3344 1.21617L19.1406 1.2522L18.7555 1.33231L18.5634 1.37638L18.3718 1.42353L17.9918 1.52548L17.8026 1.5801L17.6141 1.63759L17.2399 1.76043L17.0537 1.82636L16.8688 1.89439L16.5022 2.03812L15.782 2.35625L15.6164 2.43635L15.4523 2.51876L15.127 2.68951L14.4913 3.05554L14.3353 3.15213L14.1807 3.25083L13.8762 3.45454L13.2825 3.88497L13.1377 3.99727L12.995 4.1111L12.7132 4.34529L12.1691 4.83417L12.0376 4.95988L11.9075 5.08867L11.6517 5.3493L11.163 5.89049L11.0455 6.02962L10.9302 6.17048L10.7039 6.45564L10.2757 7.04264L10.1737 7.19231L10.0732 7.34352L9.87963 7.64899L9.51588 8.27394L9.4309 8.43281L9.34725 8.59283L9.18694 8.91555L9.10992 9.07806L9.03459 9.24191L8.89189 9.57135L8.82319 9.73673L8.75733 9.90365L8.63166 10.239L8.57242 10.4075L8.51564 10.5767L8.40758 10.9172L8.35364 11.1022L8.30197 11.2886L8.25239 11.4751L8.20583 11.6614L8.1623 11.8494L8.12085 12.0364L8.04685 12.413L8.01354 12.6016L7.98326 12.7903L7.95525 12.9797L7.93008 13.1683L7.90794 13.3578L7.88787 13.5471L7.87084 13.7357L7.85684 13.9252L7.8451 14.1146L7.83621 14.3032L7.82958 14.4927L7.8258 14.6813L7.82504 14.8691L7.82655 15.0571L7.83034 15.2449L7.83772 15.4321L7.84662 15.6194L7.85835 15.8056L7.87311 15.9921L7.89014 16.1778L7.91002 16.3625L7.93235 16.5467L7.95733 16.7301L7.98402 16.9129L8.0143 17.0956L8.04609 17.2767L8.08092 17.457L8.11782 17.6368L8.15776 17.8156L8.1992 17.9938L8.29005 18.3464L8.33963 18.5216L8.39073 18.6952L8.50012 19.0396L8.55766 19.2103L8.61841 19.3795L8.74559 19.7142L8.81202 19.8795L8.88072 20.0434L9.02418 20.3669L9.0997 20.5271L9.17654 20.685L9.33551 20.9972L9.41822 21.1507L9.50263 21.3034L9.67637 21.6028L10.0445 22.1808L10.1346 22.3117L10.2256 22.4412L10.4111 22.6957L10.7962 23.1846L10.8954 23.3028L10.9959 23.4197L11.1991 23.6472L11.6155 24.083L11.7219 24.1876L11.8284 24.2904L12.0434 24.4908L12.4804 24.8712L12.5906 24.9619L12.7007 25.0508L12.9225 25.2231L13.3661 25.5479L13.4771 25.6249L13.5878 25.7006L13.8083 25.8459L14.2451 26.1184L15.085 26.5922L15.1855 26.6454L15.2852 26.6977L15.4798 26.7982L15.8515 26.9875L15.941 27.0331L16.0275 27.0774L16.1961 27.1642L16.5088 27.3319L16.5879 27.376L16.664 27.4202L16.8074 27.5086L16.8748 27.5527L16.9397 27.5969L17.0595 27.6866L17.115 27.7324L17.1676 27.7788L17.217 27.8259L17.2628 27.8739L17.3058 27.9225L17.3457 27.972L17.3818 28.0235L17.4151 28.0753L17.4454 28.1291L17.4729 28.1837L17.4973 28.2407L17.5179 28.2983L17.5365 28.3581L17.552 28.4195L17.5645 28.4833L17.5741 28.5482L17.5815 28.6149L17.5859 28.6845L17.5874 28.7556V28.829L17.5845 28.9039L17.58 28.9817L17.5734 29.0611L17.5645 29.1435L17.5543 29.2272L17.5416 29.314L17.5276 29.4024L17.512 29.4938L17.4958 29.5865L17.4772 29.6824L17.438 29.8801L17.4174 29.9827L17.396 30.0875L17.3508 30.3031L17.2569 30.7604L17.2333 30.8794L17.2096 31.0007L17.1638 31.25L17.1417 31.3772L17.1195 31.5068L17.0773 31.7703L17.058 31.905L17.0389 32.0413L17.0211 32.1791L17.0041 32.319L16.9886 32.4598L16.9738 32.6028L16.9605 32.7465L16.9479 32.8924L16.9376 33.0361L16.9288 33.1821L16.9206 33.3289L16.9147 33.4763L16.9102 33.6254L16.9074 33.7758L16.9059 33.927V34.079L16.9079 34.2325L16.9117 34.3866L16.9168 34.5416L16.9242 34.6972L16.9339 34.8538L16.945 35.011L16.9583 35.1689L16.973 35.3275L16.9901 35.4862L17.0094 35.6464L17.0308 35.8066L17.0544 35.9669L17.0796 36.1286L17.1076 36.2896L17.1689 36.6129L17.203 36.7754L17.2391 36.9379L17.319 37.2627L17.362 37.4252L17.407 37.5876L17.5047 37.9126L17.5571 38.0741L17.6118 38.2359L17.7278 38.5594L17.7893 38.7202L17.8529 38.8804L17.9875 39.2008L18.0584 39.3595L18.1315 39.5184L18.2846 39.8334L18.6194 40.4555L18.7082 40.6082L18.8 40.761L18.9905 41.0626L19.3973 41.654L19.5051 41.7985L19.6145 41.9422L19.8401 42.2259L20.3176 42.7755L20.4336 42.9004L20.5512 43.0241L20.7923 43.2672L21.2957 43.7358L21.4259 43.8491L21.5574 43.9604L21.8251 44.1791L22.3803 44.5969L22.5229 44.6963L22.6671 44.7944L22.9591 44.9861L23.1077 45.0781L23.257 45.1695L23.5609 45.3454L23.7146 45.4307L23.8692 45.5139L24.1834 45.6741L24.8244 45.9705L24.9878 46.0401L25.1518 46.1066L25.483 46.234L25.6502 46.2946L25.818 46.3523L26.1574 46.4623L26.3281 46.5138L26.4996 46.5633L26.8448 46.6555L27.0185 46.698L27.193 46.7384L27.5443 46.8126L27.7201 46.8463L27.8976 46.877L28.0749 46.9061L28.2532 46.9324L28.4313 46.9563L28.6102 46.978L28.7892 46.9975L28.9688 47.0148L29.1492 47.0299L29.3295 47.0416L29.5099 47.0514L29.691 47.0589L29.8716 47.0642L30.0533 47.0671H30.2346L30.4157 47.0648L30.6123 47.0596L30.8097 47.0522L31.0064 47.0416L31.203 47.0282L31.3996 47.0117L31.5963 46.9924L31.7929 46.9705L31.9888 46.945L32.1847 46.9174L32.3806 46.8868L32.5759 46.8538L32.771 46.8178L32.9654 46.7781L33.1592 46.7371L33.5458 46.6449L33.7379 46.5939L33.9295 46.5416L34.311 46.427L34.5003 46.3657L34.6888 46.3021L35.0643 46.1658L35.2499 46.0932L35.4354 46.0184L35.802 45.8611L36.5229 45.5139L36.7004 45.4209L36.8755 45.3251L37.2237 45.126L37.3952 45.0227L37.5661 44.9171L37.9016 44.6986L38.068 44.5855L38.2321 44.4694L38.5559 44.2322L39.1821 43.7291L39.3345 43.5982L39.4846 43.4641L39.7794 43.191L40.3457 42.6197L40.4825 42.4723L40.6163 42.3224L40.8788 42.0179L41.3772 41.3861L41.4879 41.2349L41.5967 41.0821L41.8089 40.7723L41.9116 40.6149L42.0129 40.457L42.208 40.1366L42.3019 39.9748L42.3944 39.8118L42.5725 39.4816L42.9015 38.8093L42.9783 38.6387L43.0531 38.4672L43.195 38.1213L43.2622 37.9469L43.3273 37.7725L43.4509 37.4199L43.5092 37.2426L43.5654 37.0652L43.6697 36.7074L43.7185 36.5276L43.765 36.348L43.85 35.9864L43.8892 35.8045L43.9261 35.6225L43.9609 35.4406L43.9927 35.258L44.0222 35.0746L44.0489 34.8919L44.0741 34.7085L44.0962 34.5251L44.1161 34.3417L44.1331 34.1576L44.1479 33.9742L44.1606 33.79L44.1708 33.6058L44.1782 33.4224L44.1835 33.2383L44.1863 33.0549L44.1871 32.8715L44.1848 32.6881L44.1805 32.5047L44.1738 32.322L44.1649 32.1394L44.153 31.9573L44.139 31.7755L44.1227 31.5936L44.1044 31.4125L44.0836 31.232L44.0599 31.0516L44.0342 30.8719L44.006 30.6931L43.9757 30.5141L43.9085 30.1594L43.8722 29.9855L43.833 29.8135L43.7495 29.4706L43.7043 29.3006L43.657 29.1306L43.5557 28.7947L43.5025 28.6276L43.4463 28.4622L43.3288 28.1328L43.0701 27.4875L42.9999 27.3296L42.9281 27.1717L42.7796 26.8603L42.702 26.7068L42.6229 26.554L42.4586 26.2524L42.3744 26.104L42.2879 25.9567L42.1098 25.6661L41.7334 25.1025L41.6351 24.9655L41.5352 24.8292L41.3312 24.5627L40.9053 24.0485L40.7952 23.9241L40.6843 23.8015L40.4574 23.5612L39.9893 23.1008L39.869 22.9906L39.7477 22.8814L39.5022 22.6696L38.9995 22.2676L38.8716 22.1718L38.7423 22.0775L38.4821 21.8956L37.9535 21.5533L37.8078 21.4658L37.6622 21.3805L37.3687 21.2172L37.2209 21.1386L37.0729 21.0623L36.775 20.9171L36.6256 20.8475L36.4763 20.7801L36.1769 20.652L35.5758 20.423L35.4257 20.3713L35.2764 20.3213L34.977 20.2283L34.8277 20.185L34.6791 20.143L34.3826 20.0668L34.2347 20.0307L34.0877 19.997L33.7957 19.9357L33.6507 19.9079L33.5067 19.8818L33.2213 19.8339L33.0801 19.8128L32.9395 19.7935L32.7998 19.7755L32.6616 19.759L32.5248 19.744L32.3887 19.7299L32.2549 19.7178L32.1211 19.7067L31.9896 19.6969L31.8594 19.6879L31.7308 19.6797L31.6037 19.6729L31.4788 19.667L31.3544 19.6624L31.2325 19.658L31.1127 19.6542L30.9944 19.6513L30.8777 19.6482L30.763 19.6459L30.6508 19.6438L30.5406 19.6423L30.4325 19.6408L30.3262 19.6385L30.2226 19.6369L30.1206 19.6348L30.0217 19.6325L29.9248 19.6294L29.8301 19.6258L29.7378 19.6212L29.6482 19.6168L29.561 19.6109L29.476 19.604L29.399 19.5965L29.3244 19.5877L29.2512 19.5779L29.181 19.5666L29.113 19.5547L29.0464 19.5403L28.9828 19.5246L28.9207 19.5081L28.8609 19.4895L28.804 19.4685L28.7485 19.446L28.6946 19.4213L28.6435 19.3953L28.5941 19.3667L28.5468 19.336L28.5008 19.3031L28.4572 19.268L28.415 19.2304L28.3743 19.1908L28.3359 19.1488L28.299 19.1047L28.2629 19.0576L28.2288 19.0081L28.1963 18.9566L28.1645 18.9018L28.1342 18.8451L28.1047 18.7858L28.0765 18.7245L28.0492 18.6601L28.0225 18.5934L27.9722 18.4528L27.9478 18.3786L27.9235 18.3023L27.8768 18.1427L27.7859 17.797L27.763 17.7056L27.7394 17.6113L27.6928 17.4181L27.5929 17.0093L27.5672 16.9032L27.5397 16.7953L27.4828 16.5753L27.3571 16.1178L27.3232 16.0011L27.2884 15.8829L27.2138 15.6425L27.0495 15.1521L27.0009 15.0174L26.9506 14.8819L26.844 14.6086L26.7886 14.4708L26.731 14.3332L26.6097 14.0561L26.5461 13.9178L26.4804 13.7784L26.3436 13.4992L26.0442 12.9423L25.9643 12.8038L25.8822 12.6652L25.7115 12.3898L25.3441 11.8433L25.2472 11.7085L25.1482 11.5746L24.9427 11.3088L24.5078 10.7885L24.3933 10.6612L24.2773 10.5347L24.0392 10.2854L23.538 9.80342L23.4071 9.68652L23.2755 9.57058L23.0049 9.34444L22.4424 8.91191L22.2967 8.80785L22.1496 8.70589L21.8502 8.50755L21.6979 8.41096L21.5442 8.31667L21.2314 8.13404L21.0724 8.04569L20.9128 7.95964L20.5875 7.79407L19.92 7.48878L19.7529 7.41902L19.5842 7.35252L19.2441 7.22527L19.0727 7.16452L18.8997 7.10703L18.5507 6.99837L18.3741 6.94759L18.1974 6.89968L18.0193 6.85387L17.8402 6.81056L17.6606 6.76936L17.4803 6.73122L17.1173 6.66223L16.9339 6.63157L16.7505 6.60321L16.5665 6.57772L16.3824 6.55453L16.1969 6.53422L16.0112 6.51639L15.825 6.50125L15.6386 6.48861L15.4516 6.47883L15.2638 6.47136L15.0769 6.46695L14.8884 6.46465L14.7004 6.46542L14.5119 6.46906L14.3234 6.47519L14.1349 6.4842L13.9464 6.49531L13.7572 6.50949L13.5687 6.52674L13.3802 6.54629L13.1917 6.56871L13.0032 6.59343L12.8147 6.62103L12.626 6.65188L12.4382 6.68465L12.2512 6.72068L12.0642 6.75882L11.8771 6.80002L11.6908 6.8441L11.5046 6.89067L11.1342 6.99243L10.9501 7.04705L10.7659 7.10396L10.4008 7.22681L10.219 7.29177L10.0379 7.36L9.67921 7.50373L9.50036 7.57924L9.32283 7.658L8.97176 7.82185L8.28059 8.18118L8.12237 8.27029L7.9649 8.36151L7.65357 8.55181L7.04586 8.95522L6.89654 9.06158L6.74948 9.16928L6.45821 9.39159L5.89252 9.85957L5.75436 9.98165L5.61829 10.1051L5.35067 10.3573L4.83532 10.8837L4.71041 11.02L4.58702 11.1576L4.34666 11.4375L3.88619 12.0171L3.77604 12.1652L3.66798 12.3149L3.45658 12.6196L3.35381 12.7739L3.25331 12.9295L3.05819 13.2447L2.96356 13.4049L2.87101 13.5651L2.69216 13.8907L2.3602 14.5548L2.2826 14.724L2.20652 14.893L2.06231 15.2361L1.99361 15.4082L1.92699 15.5818L1.79981 15.9313L1.74 16.1073L1.68228 16.284L1.5744 16.6397L1.5233 16.8177L1.47466 16.9974L1.38514 17.3575L1.3401 17.5544L1.29789 17.7514L1.25872 17.9489L1.22181 18.1465L1.1885 18.3449L1.15746 18.544L1.12851 18.7431L1.10352 18.9422L1.08062 19.1421L1.06056 19.342L1.04353 19.5419L1.02952 19.7425L1.01836 19.9432L1.00965 20.1438L1.0036 20.3437L1.00076 20.5443V20.745L1.00284 20.9454L1.00814 21.1453L1.01628 21.3452L1.02725 21.5451L1.04145 21.7442L1.05753 21.9435L1.07684 22.1426L1.09898 22.341L1.1234 22.5386L1.1516 22.7354L1.18188 22.9324L1.21443 23.1292L1.24982 23.3247L1.32969 23.7139L1.37322 23.9071L1.41996 24.1001L1.52103 24.4828L1.57516 24.6729L1.63288 24.8622L1.75401 25.238L1.81911 25.4237L1.8863 25.6087L2.02824 25.9755L2.3426 26.6933L2.42758 26.87L2.51407 27.0444L2.69519 27.3901L2.78906 27.5601L2.8852 27.7294L3.08449 28.0624L3.18745 28.2265L3.29249 28.3888L3.50919 28.7085L3.96738 29.3261L4.07905 29.4654L4.19222 29.6038L4.42369 29.8748L4.90554 30.3966L5.03064 30.5223L5.15631 30.6467L5.41199 30.8891L5.94059 31.351L6.07591 31.4618L6.21199 31.5704L6.48925 31.7814L7.05627 32.1798L7.2003 32.2749L7.34603 32.3669L7.63957 32.5451L8.23687 32.8766L8.38846 32.9539L8.54006 33.0294L8.84685 33.1731L9.00053 33.2421L9.15515 33.3086L9.46553 33.4351L9.62224 33.4951L9.77838 33.5535L10.0933 33.6628L10.2508 33.7135L10.409 33.763L10.7252 33.8544L10.8842 33.8971L11.0432 33.9374L11.2022 33.9757L11.3611 34.0123L11.5201 34.046L11.6791 34.0775L11.9976 34.1352L12.1566 34.1606L12.3146 34.1838L12.4738 34.2047L12.632 34.2235L12.7902 34.2406L12.9485 34.2557L13.1059 34.2683L13.2634 34.2797L13.4171 34.2879L13.5709 34.2946L13.7238 34.2998L13.8762 34.3028L14.0286 34.3036L14.18 34.3028L14.3308 34.3005L14.4816 34.2961L14.631 34.29L14.7803 34.2818L14.9289 34.2722L15.0769 34.2609L15.2232 34.2482L15.3696 34.2331L15.5152 34.2166L15.6594 34.1988L15.8036 34.1792L15.9461 34.1583L16.0875 34.1359L16.2287 34.112L16.3684 34.0865L16.5073 34.0595L16.7815 34.0018L16.9176 33.9711L17.0514 33.9389L17.3169 33.8716L17.8328 33.7233L17.9585 33.6836L18.0827 33.644L18.3274 33.561L18.8 33.3872L18.9145 33.3431L19.0269 33.2983L19.2479 33.2076L19.6715 33.0242L19.7735 32.9786L19.8732 32.9336L20.0693 32.8437L20.4404 32.6708L20.529 32.6289L20.6163 32.5884L20.7857 32.5106L21.1049 32.3692L21.1878 32.3347L21.2685 32.3017L21.3468 32.2718L21.4236 32.2435L21.499 32.2172L21.573 32.1933L21.6455 32.1724L21.7157 32.1536L21.7851 32.1379L21.8523 32.1245L21.9189 32.1139L21.984 32.1064L22.0476 32.1011L22.1105 32.0997L22.1718 32.1011L22.2323 32.1057L22.2923 32.1139L22.3506 32.1245L22.4091 32.1386L22.4661 32.1565L22.5229 32.1768L22.5791 32.2007L22.6353 32.2283L22.6907 32.2592L22.7462 32.2927L22.8016 32.3295L22.8571 32.3699L22.9118 32.4125L22.968 32.4591L23.0234 32.5083L23.1359 32.6154L23.1926 32.6739L23.2504 32.7344L23.3679 32.8632L23.6126 33.1507L24.1598 33.8191L24.2341 33.9098L24.3104 34.001L24.4679 34.1875L24.8029 34.5708L25.5578 35.3584L25.6538 35.4504L25.7507 35.5418L25.9503 35.7252L26.3688 36.0866L26.4774 36.1758L26.5876 36.2641L26.813 36.4385L27.2818 36.7785L27.4031 36.8614L27.5257 36.9431L27.7748 37.1033L28.2924 37.4095L28.4247 37.4827L28.5593 37.5548L28.8312 37.6947L29.3916 37.9574L29.5343 38.0188L29.6785 38.0795L29.9713 38.1947L30.1191 38.2493L30.2677 38.3033L30.5686 38.4051L30.721 38.453L30.8739 38.4994L31.1829 38.5862L31.3389 38.6267L31.4958 38.6656L31.812 38.7374L31.9718 38.7704L32.1315 38.801L32.2928 38.8304L32.4538 38.8572L32.6164 38.8819L32.7792 38.9043L32.9425 38.9254L33.1066 38.9434L33.2714 38.9597L33.4363 38.9741L33.6019 38.986L33.7682 38.9965L33.9353 39.004L34.1017 39.0099L34.2696 39.013L34.4374 39.0145L34.6191 39.013L34.8018 39.0092L34.9844 39.0025L35.167 38.9935L35.3504 38.9823L35.5338 38.9674L35.717 38.9509L35.9004 38.9306L36.0846 38.9082L36.2678 38.8834L36.4511 38.8559L36.6345 38.825L36.8172 38.792L37.0006 38.7562L37.3656 38.6769L37.5475 38.6326L37.7294 38.5862L38.0916 38.4845L38.272 38.4298L38.4516 38.3729L38.8103 38.2501L38.9878 38.1843L39.1651 38.1161L39.5177 37.9724L40.2119 37.6527L40.3836 37.5667L40.5535 37.4776L40.8906 37.2919L41.0577 37.1953L41.2233 37.0966L41.5507 36.8908L41.7127 36.7844L41.874 36.6752L42.1902 36.4498L42.8061 35.9715L42.9562 35.8456L43.1047 35.7177L43.396 35.4556L43.9587 34.9046L44.0947 34.7616L44.2285 34.6164L44.4903 34.3207L44.9899 33.7047L45.1016 33.5572L45.2117 33.4075L45.4262 33.1035L45.5304 32.9485L45.6325 32.7929L45.8306 32.4776L45.9268 32.3174L46.0206 32.1559L46.2025 31.8293L46.5411 31.1609L46.6202 30.9909L46.697 30.8196L46.8441 30.4737L46.9143 30.3L46.9824 30.1241L47.1117 29.7707L47.1725 29.5927L47.2315 29.4137L47.3416 29.0528L47.3935 28.8717L47.4429 28.6899L47.5347 28.3236L47.5767 28.1397L47.6166 27.9547L47.6537 27.7698L47.6891 27.5841L47.7217 27.3976L47.7512 27.2106L47.7794 27.0233L47.8044 26.8363L47.8275 26.6483L47.8473 26.4605L47.8659 26.2717L47.8807 26.0832L47.8939 25.8946L47.9043 25.705L47.9125 25.5165L47.9176 25.3271L47.9206 25.1376L47.9213 24.9483L47.9198 24.7589L47.9153 24.5696L47.9079 24.38L47.899 24.1915L47.8873 24.0021L47.8725 23.8134L47.8562 23.6248L47.8369 23.4368L47.8156 23.249L47.7911 23.0612L47.7646 22.8739L47.7357 22.6867L47.67 22.3147L47.6344 22.1329L47.5968 21.9516L47.5139 21.5909L47.4696 21.4111L47.4223 21.2323L47.321 20.8766L47.2671 20.6992L47.2109 20.5233L47.0918 20.1737L46.8278 19.4857L46.7561 19.3159L46.6823 19.1475L46.5284 18.8129L46.4485 18.6473L46.3666 18.4834L46.1964 18.1578L46.1079 17.9976L46.0176 17.8382L45.8314 17.5229L45.4351 16.9091L45.3308 16.7594L45.2252 16.6111L45.0085 16.3185L44.5531 15.7525L44.4356 15.6148L44.3158 15.4793L44.0711 15.2127L43.5631 14.7008L43.4323 14.5772L43.3 14.4559L43.0317 14.2179L42.4771 13.7658L42.3352 13.6571L42.1925 13.551L41.9027 13.3442L41.309 12.9557L41.1449 12.8555L40.9801 12.7589L40.6466 12.5717L40.4782 12.4818L40.308 12.3942L39.9664 12.2281L39.7942 12.148L39.6205 12.0717L39.2717 11.9249L39.0964 11.8561L38.9196 11.7894L38.5648 11.6645L38.3867 11.606L38.2077 11.5499L37.8492 11.4458L37.6688 11.3979L37.4877 11.3523L37.1255 11.2691L36.9444 11.2317L36.7625 11.1972L36.5806 11.165L36.3987 11.1359L36.2161 11.1089L36.0342 11.0842L35.8523 11.0633L35.6697 11.0439L35.4878 11.028L35.3059 11.0146L35.1241 11.0035L34.9424 10.9952L34.7611 10.9891L34.5799 10.9862L34.3988 10.9855L34.2185 10.987L34.0389 10.9914L33.8593 10.9989L33.6796 11.0079L33.5014 11.02L33.3233 11.0349L33.1457 11.052L32.9692 11.0715L32.7932 11.0932L32.6179 11.1171L32.4427 11.1441L32.2691 11.1733L32.0959 11.2047L31.9237 11.2384L31.753 11.2752L31.4137 11.3538L31.245 11.3963L31.0781 11.4421L30.7469 11.5387L30.5826 11.5903L30.42 11.6441L30.0985 11.7572L29.9499 11.8126L29.8027 11.8703L29.5122 11.9901L29.368 12.0521L29.226 12.1165L28.9452 12.2484L28.8062 12.3172L28.6694 12.3867L28.3988 12.5312L27.8747 12.8344L27.7475 12.9138L27.6219 12.9939L27.3749 13.1571L26.8989 13.4962L26.7834 13.5832L26.6703 13.6707L26.4479 13.848L26.0228 14.2096L25.9208 14.3011L25.8201 14.393L25.6242 14.5772L25.2508 14.9478L24.5818 15.6791L24.505 15.7683L24.4296 15.8566L24.2839 16.031L24.0074 16.3664L23.5129 16.9683L23.4508 17.0408L23.39 17.1113L23.2704 17.2445L23.2112 17.3066L23.1535 17.3665L23.039 17.4773L22.982 17.5281L22.9258 17.576L22.869 17.6203L22.8136 17.6622L22.7573 17.7004L22.7011 17.7349L22.6442 17.7663L22.5872 17.7947L22.5302 17.8194L22.4727 17.841L22.4142 17.8591L22.3559 17.874L22.2959 17.8853L22.2354 17.8936L22.1741 17.898L22.112 17.8995L22.0484 17.898L21.9833 17.8936L21.9174 17.8853L21.8495 17.8748L21.7808 17.8614L21.7104 17.8449L21.6388 17.8253L21.5656 17.8037L21.4901 17.779L21.4132 17.7527L21.2543 17.6921L20.9149 17.5476L20.1416 17.1891L20.036 17.1404L19.9279 17.091L19.7071 16.9915L19.2419 16.7893L19.1207 16.7391L18.9973 16.6897L18.7458 16.591L18.221 16.4016L18.088 16.3574L17.9534 16.3141L17.6799 16.2293L17.5401 16.1897L17.3996 16.15L17.1142 16.0758L16.9687 16.0408L16.823 16.007L16.6751 15.9748L16.5258 15.9434L16.3757 15.9143L16.2249 15.8873L15.9189 15.8371L15.7637 15.8146L15.6083 15.7937L15.4516 15.775L15.2934 15.7585L15.1351 15.7435L14.9756 15.7309L14.8151 15.7196L14.6539 15.7106L14.492 15.7039L14.3287 15.6993L14.1652 15.6964L14.0011 15.6956L13.837 15.6972L13.6714 15.7016L13.5058 15.7075L13.3395 15.7157L13.1724 15.7263L13.0052 15.7391L12.8383 15.7541L12.6704 15.7711L12.5026 15.7914L12.3339 15.8131L12.1653 15.8378L11.9969 15.8648L11.8284 15.894L11.659 15.9254L11.4904 15.9599L11.322 15.9957L11.1526 16.0346L10.9841 16.0766L10.6476 16.1665L10.48 16.2152L10.3121 16.2661L9.9771 16.3761L9.81074 16.4344L9.64457 16.4959L9.31394 16.6247L9.14909 16.6935L8.98501 16.7638L8.6591 16.9129L8.01657 17.2401L7.86876 17.3223L7.72152 17.4062L7.43025 17.5806L6.85812 17.9534L6.71769 18.0515L6.57858 18.1517L6.30283 18.3583L5.76685 18.7948L5.63532 18.9087L5.50587 19.0246L5.25094 19.2619L4.75697 19.7582L4.63736 19.887L4.51907 20.0173L4.28761 20.2824L3.84323 20.8339L3.73687 20.9755L3.63183 21.1193L3.42705 21.4104L3.32731 21.5587L3.22965 21.7076L3.03964 22.0108L2.94728 22.1643L2.857 22.3199L2.68175 22.6336L2.3566 23.2768L2.27958 23.4406L2.20577 23.6052L2.06307 23.9393L1.99512 24.107L1.92926 24.276L1.80435 24.6175L1.74435 24.7896L1.68758 24.9624L1.57951 25.3114L1.52936 25.4873L1.48128 25.6633L1.39101 26.018L1.34596 26.2119L1.30376 26.4059L1.26458 26.6012L1.22768 26.7966L1.19361 26.9935L1.16182 27.1903L1.13381 27.388L1.10788 27.5856L1.08498 27.784L1.06435 27.9831L1.04656 28.1822L1.0318 28.3821L1.01987 28.582L1.01098 28.7818L1.00435 28.9825L1.00076 29.1831L1 29.3838L1.00208 29.5844L1.00738 29.7857L1.01476 29.9863L1.02517 30.187L1.03842 30.3876L1.0547 30.5883L1.07381 30.7889L1.09539 30.9888L1.1198 31.1887L1.14705 31.3886L1.17734 31.5877L1.21064 31.7868L1.24623 31.9851L1.3259 32.3803L1.36962 32.5773L1.41694 32.7734L1.51819 33.1641L1.57364 33.358L1.63137 33.552L1.75476 33.936L1.82062 34.1269L1.88933 34.317L2.0343 34.6936L2.35509 35.4339L2.44158 35.6158L2.5311 35.7971L2.71733 36.1549L2.81347 36.3316L2.91321 36.5075L3.11875 36.854L3.2253 37.0247L3.33394 37.1947L3.55859 37.5285L4.03476 38.1761L4.15078 38.3235L4.26906 38.4687L4.51093 38.7554L5.01644 39.3072L5.14741 39.4404L5.2797 39.5722L5.54959 39.8303L6.10771 40.3238L6.25117 40.4421L6.39595 40.5588L6.69025 40.7857L7.29493 41.2153L7.44955 41.3171L7.6055 41.4175L7.92043 41.6107L8.56372 41.9714L8.72705 42.0561L8.89113 42.1383L9.22309 42.2964L9.39021 42.3719L9.55865 42.4453L9.89723 42.5846L10.0674 42.6504L10.2388 42.7147L10.5833 42.8353L10.7565 42.8922L10.9302 42.9468L11.279 43.048L11.4543 43.0959L11.6303 43.1408L11.8061 43.1827L11.9829 43.2232L12.1604 43.2605L12.337 43.2956L12.6926 43.3587L12.8707 43.387L13.049 43.4125L13.227 43.4357L13.4053 43.4558L13.5842 43.4746L13.7623 43.4903L13.9413 43.5037L14.1194 43.515L14.2947 43.5233L14.4691 43.5292L14.6444 43.533L14.8187 43.5346L14.9932 43.5338L15.1669 43.5307L15.3407 43.5256L15.5144 43.5181L15.6882 43.5076L15.8611 43.4955L16.0334 43.4813L16.2058 43.4641L16.3773 43.4455L16.5487 43.4244L16.7194 43.4012L16.8896 43.3751L17.0588 43.3473L17.2282 43.3175L17.3966 43.2853L17.5645 43.2508L17.7316 43.2142L17.8979 43.1753L18.2284 43.0913L18.3925 43.0465L18.5552 42.9993L18.8791 42.8989L19.0401 42.8458L19.1991 42.7904L19.5155 42.6735L19.6722 42.6122L19.8274 42.5494L20.1357 42.4175L20.2881 42.3479L20.4389 42.2776L20.7376 42.1308L20.8846 42.0545L21.0311 41.976L21.3194 41.815L21.8805 41.4721L22.0173 41.383L22.1532 41.2916L22.4195 41.1046L22.9339 40.7123L23.0588 40.6105L23.1824 40.508L23.4241 40.2983L23.8884 39.8648L24.0097 39.7435L24.1287 39.6217L24.3615 39.3739L24.8021 38.8654L24.9071 38.7361L25.0099 38.605L25.2096 38.3415L25.5843 37.8062L25.6723 37.6707L25.7588 37.5345L25.9252 37.262L26.2335 36.7125L26.3052 36.5747L26.3746 36.4377L26.5085 36.1623L26.7524 35.6142L26.8094 35.4782L26.8633 35.3425L26.9668 35.073L27.1531 34.5432L27.196 34.4128L27.2367 34.2833L27.3151 34.028L27.454 33.5332L27.4858 33.4127L27.5168 33.2944L27.5753 33.0623L27.6832 32.6214L27.7083 32.5158L27.7335 32.4133L27.7829 32.2134L27.8806 31.8437L27.9042 31.7636L27.9271 31.685L27.9515 31.6093L27.976 31.5359L28.0011 31.4648L28.0269 31.396L28.081 31.2657L28.109 31.2044L28.1385 31.1459L28.1688 31.089L28.2006 31.0352L28.2339 30.9842L28.268 30.9347L28.3041 30.8884L28.3412 30.8443L28.3804 30.8023L28.4203 30.7634L28.4631 30.726L28.5068 30.6916L28.5526 30.6594L28.6007 30.6287L28.6501 30.6001L28.702 30.5748L28.7551 30.5501L28.8113 30.5283L28.8691 30.5074L28.9289 30.4894L28.991 30.4721L29.0545 30.4572L29.1212 30.4438L29.1899 30.4311L29.2601 30.4206L29.3333 30.4108L29.4079 30.4026L29.4849 30.3951L29.5646 30.3884L29.646 30.3832L29.7296 30.3786L29.8154 30.3742L29.9026 30.3711L29.9927 30.3681L30.0845 30.366L30.1784 30.3637L30.2743 30.3614L30.372 30.3598L30.5732 30.3569L30.6765 30.3546L30.7815 30.3531L30.8888 30.351L30.9975 30.3487L31.1076 30.3456L31.2193 30.342L31.333 30.3382L31.4477 30.3338L31.5645 30.3284L31.682 30.3225L31.8018 30.315L31.9222 30.3075L32.0443 30.2985L32.1677 30.2895L32.292 30.2784L32.4177 30.2663L32.5596 30.2521L32.7023 30.2356L32.8463 30.2184L32.9921 30.199L33.1384 30.178L33.2856 30.1548L33.5843 30.104L33.7343 30.0754L33.8857 30.0455L34.1905 29.9788L34.3434 29.9422L34.498 29.9041L34.8071 29.8209L34.9622 29.7753L35.1174 29.7282L35.4295 29.627L35.5855 29.5731L35.7422 29.5162L36.0543 29.3964L36.211 29.3328L36.3669 29.2669L36.6781 29.1285L37.2962 28.8208L37.4493 28.7385L37.6022 28.6531L37.9054 28.475L38.0562 28.3821L38.2063 28.287L38.5035 28.0902L38.6505 27.9877L38.7962 27.8829L39.0852 27.6665L39.6494 27.2046L39.7868 27.0833L39.9229 26.9597L40.1913 26.706L40.7087 26.1707L40.8344 26.0322L40.958 25.8907L41.1996 25.6018L41.3172 25.4544L41.4339 25.3049L41.5479 25.1537L41.6603 25Z" stroke="#16D0AF" stroke-width="2" stroke-miterlimit="2" stroke-linecap="square"/>
</svg>
